<svg width="968" height="180" viewBox="0 0 968 180" fill="none" xmlns="http://www.w3.org/2000/svg">
  <path
    d="M923.455 155.917C913.493 155.917 904.918 153.9 897.731 149.865C890.585 145.787 885.079 140.029 881.212 132.589C877.345 125.107 875.411 116.259 875.411 106.045C875.411 96.0832 877.345 87.3402 881.212 79.8163C885.079 72.2923 890.522 66.4287 897.542 62.2254C904.603 58.0221 912.884 55.9204 922.383 55.9204C928.772 55.9204 934.72 56.9502 940.226 59.0098C945.775 61.0274 950.609 64.0749 954.728 68.1521C958.889 72.2293 962.126 77.3574 964.438 83.5362C966.749 89.6731 967.905 96.8608 967.905 105.099V112.476H886.13V95.831H942.622C942.622 91.9639 941.782 88.5382 940.1 85.5538C938.419 82.5695 936.086 80.2366 933.102 78.5553C930.159 76.8319 926.734 75.9703 922.825 75.9703C918.747 75.9703 915.133 76.916 911.98 78.8075C908.87 80.657 906.432 83.1579 904.666 86.3104C902.901 89.4209 901.997 92.8886 901.955 96.7137V112.539C901.955 117.331 902.838 121.471 904.603 124.96C906.411 128.449 908.954 131.139 912.232 133.03C915.511 134.922 919.399 135.868 923.896 135.868C926.881 135.868 929.613 135.447 932.093 134.607C934.573 133.766 936.696 132.505 938.461 130.824C940.226 129.142 941.571 127.083 942.496 124.645L967.338 126.284C966.077 132.253 963.492 137.465 959.583 141.92C955.716 146.334 950.714 149.781 944.577 152.261C938.482 154.699 931.441 155.917 923.455 155.917Z"
    fill="#262626" />
  <path
    d="M860.2 84.7972L835.611 86.3104C835.191 84.2088 834.287 82.3173 832.9 80.6359C831.513 78.9126 829.684 77.5465 827.414 76.5377C825.187 75.4869 822.518 74.9615 819.407 74.9615C815.246 74.9615 811.736 75.8442 808.878 77.6096C806.019 79.3329 804.59 81.6447 804.59 84.545C804.59 86.8569 805.515 88.8114 807.365 90.4087C809.214 92.0059 812.388 93.288 816.885 94.2547L834.413 97.7855C843.828 99.719 850.848 102.829 855.472 107.117C860.095 111.404 862.407 117.037 862.407 124.014C862.407 130.361 860.537 135.931 856.796 140.722C853.097 145.514 848.011 149.255 841.538 151.945C835.106 154.593 827.688 155.917 819.281 155.917C806.461 155.917 796.247 153.248 788.639 147.91C781.073 142.53 776.638 135.216 775.335 125.969L801.753 124.582C802.552 128.491 804.485 131.475 807.554 133.535C810.622 135.552 814.552 136.561 819.344 136.561C824.052 136.561 827.835 135.657 830.693 133.85C833.593 132.001 835.064 129.626 835.106 126.725C835.064 124.287 834.035 122.291 832.017 120.736C829.999 119.138 826.889 117.919 822.686 117.079L805.914 113.737C796.457 111.846 789.416 108.567 784.793 103.901C780.211 99.2357 777.92 93.288 777.92 86.0582C777.92 79.8373 779.602 74.4781 782.964 69.9805C786.369 65.483 791.14 62.0152 797.277 59.5773C803.455 57.1394 810.685 55.9204 818.966 55.9204C831.197 55.9204 840.823 58.5054 847.843 63.6755C854.904 68.8456 859.023 75.8862 860.2 84.7972Z"
    fill="#262626" />
  <path
    d="M704.246 155.854C698.068 155.854 692.561 154.783 687.727 152.639C682.894 150.453 679.069 147.238 676.252 142.992C673.478 138.705 672.091 133.367 672.091 126.978C672.091 121.597 673.079 117.079 675.054 113.422C677.03 109.765 679.72 106.823 683.125 104.595C686.529 102.367 690.397 100.686 694.726 99.5509C699.097 98.416 703.679 97.6174 708.471 97.155C714.103 96.5665 718.643 96.0201 722.09 95.5157C725.536 94.9693 728.037 94.1707 729.593 93.1198C731.148 92.069 731.925 90.5138 731.925 88.4541V88.0758C731.925 84.0827 730.664 80.9932 728.142 78.8075C725.662 76.6218 722.132 75.5289 717.55 75.5289C712.716 75.5289 708.87 76.6008 706.012 78.7445C703.154 80.8461 701.262 83.4942 700.337 86.6887L675.496 84.6711C676.757 78.7865 679.237 73.7005 682.936 69.4131C686.635 65.0837 691.405 61.763 697.248 59.4512C703.133 57.0973 709.942 55.9204 717.676 55.9204C723.056 55.9204 728.205 56.5509 733.123 57.8119C738.083 59.0729 742.476 61.0274 746.301 63.6755C750.168 66.3236 753.215 69.7283 755.443 73.8896C757.671 78.0089 758.785 82.9478 758.785 88.7063V154.026H733.312V140.596H732.556C731.001 143.623 728.92 146.292 726.314 148.604C723.708 150.873 720.576 152.66 716.919 153.963C713.263 155.224 709.038 155.854 704.246 155.854ZM711.939 137.318C715.89 137.318 719.378 136.54 722.405 134.985C725.431 133.388 727.806 131.244 729.529 128.554C731.253 125.864 732.115 122.816 732.115 119.412V109.134C731.274 109.681 730.118 110.185 728.647 110.648C727.218 111.068 725.599 111.467 723.792 111.846C721.984 112.182 720.177 112.497 718.37 112.791C716.562 113.044 714.923 113.275 713.452 113.485C710.299 113.947 707.546 114.683 705.192 115.692C702.838 116.7 701.01 118.067 699.707 119.79C698.404 121.471 697.752 123.573 697.752 126.095C697.752 129.752 699.076 132.547 701.724 134.481C704.415 136.372 707.819 137.318 711.939 137.318Z"
    fill="#262626" />
  <path
    d="M564.26 154.026V24.8999H591.119V73.4483H591.939C593.116 70.8422 594.818 68.1941 597.046 65.504C599.316 62.7719 602.258 60.5021 605.873 58.6946C609.53 56.8452 614.069 55.9204 619.492 55.9204C626.553 55.9204 633.068 57.7699 639.037 61.4688C645.006 65.1257 649.777 70.6531 653.349 78.0509C656.922 85.4067 658.709 94.633 658.709 105.73C658.709 116.532 656.964 125.654 653.476 133.093C650.029 140.491 645.321 146.103 639.352 149.928C633.426 153.711 626.784 155.602 619.429 155.602C614.217 155.602 609.782 154.741 606.125 153.017C602.51 151.294 599.547 149.129 597.235 146.523C594.923 143.875 593.158 141.206 591.939 138.516H590.741V154.026H564.26ZM590.552 105.604C590.552 111.362 591.35 116.385 592.948 120.673C594.545 124.96 596.857 128.302 599.883 130.698C602.91 133.051 606.588 134.228 610.917 134.228C615.288 134.228 618.987 133.03 622.014 130.635C625.04 128.197 627.331 124.834 628.886 120.547C630.483 116.217 631.282 111.236 631.282 105.604C631.282 100.013 630.504 95.0954 628.949 90.8501C627.394 86.6047 625.103 83.2841 622.077 80.8882C619.05 78.4923 615.33 77.2943 610.917 77.2943C606.545 77.2943 602.847 78.4502 599.82 80.7621C596.836 83.0739 594.545 86.3525 592.948 90.5979C591.35 94.8432 590.552 99.8452 590.552 105.604Z"
    fill="#262626" />
  <path
    d="M488.38 155.854C482.201 155.854 476.694 154.783 471.86 152.639C467.027 150.453 463.202 147.238 460.385 142.992C457.611 138.705 456.224 133.367 456.224 126.978C456.224 121.597 457.212 117.079 459.187 113.422C461.163 109.765 463.853 106.823 467.258 104.595C470.663 102.367 474.53 100.686 478.859 99.5509C483.23 98.416 487.812 97.6174 492.604 97.155C498.236 96.5665 502.776 96.0201 506.223 95.5157C509.669 94.9693 512.17 94.1707 513.726 93.1198C515.281 92.069 516.058 90.5138 516.058 88.4541V88.0758C516.058 84.0827 514.797 80.9932 512.275 78.8075C509.795 76.6218 506.265 75.5289 501.683 75.5289C496.849 75.5289 493.003 76.6008 490.145 78.7445C487.287 80.8461 485.395 83.4942 484.47 86.6887L459.629 84.6711C460.89 78.7865 463.37 73.7005 467.069 69.4131C470.768 65.0837 475.538 61.763 481.381 59.4512C487.266 57.0973 494.075 55.9204 501.809 55.9204C507.189 55.9204 512.339 56.5509 517.256 57.8119C522.216 59.0729 526.609 61.0274 530.434 63.6755C534.301 66.3236 537.348 69.7283 539.576 73.8896C541.804 78.0089 542.918 82.9478 542.918 88.7063V154.026H517.446V140.596H516.689C515.134 143.623 513.053 146.292 510.447 148.604C507.841 150.873 504.709 152.66 501.053 153.963C497.396 155.224 493.171 155.854 488.38 155.854ZM496.072 137.318C500.023 137.318 503.512 136.54 506.538 134.985C509.564 133.388 511.939 131.244 513.663 128.554C515.386 125.864 516.248 122.816 516.248 119.412V109.134C515.407 109.681 514.251 110.185 512.78 110.648C511.351 111.068 509.732 111.467 507.925 111.846C506.118 112.182 504.31 112.497 502.503 112.791C500.695 113.044 499.056 113.275 497.585 113.485C494.432 113.947 491.679 114.683 489.325 115.692C486.971 116.7 485.143 118.067 483.84 119.79C482.537 121.471 481.885 123.573 481.885 126.095C481.885 129.752 483.209 132.547 485.858 134.481C488.548 136.372 491.952 137.318 496.072 137.318Z"
    fill="#262626" />
  <path
    d="M377.869 154.026H332.095V24.8999H378.247C391.235 24.8999 402.416 27.4849 411.79 32.655C421.163 37.7831 428.372 45.1599 433.416 54.7855C438.502 64.4111 441.045 75.9283 441.045 89.3369C441.045 102.787 438.502 114.347 433.416 124.014C428.372 133.682 421.121 141.101 411.664 146.271C402.248 151.441 390.983 154.026 377.869 154.026ZM359.395 130.635H376.734C384.804 130.635 391.593 129.205 397.099 126.347C402.648 123.447 406.809 118.97 409.583 112.917C412.399 106.823 413.807 98.9625 413.807 89.3369C413.807 79.7953 412.399 71.9981 409.583 65.9454C406.809 59.8926 402.669 55.437 397.162 52.5788C391.656 49.7205 384.867 48.2914 376.797 48.2914H359.395V130.635Z"
    fill="#262626" />
  <path
    d="M232.08 113.9C231.663 136.616 213.522 152.982 193.953 162.766C173.199 173.143 145.646 179.1 116.087 179.1C86.5277 179.1 58.9759 173.143 38.2217 162.766C18.6533 152.982 0.511671 136.616 0.0947266 113.9C9.08594 124.174 20.5761 131.832 31.0654 137.077C54.4781 148.783 84.583 155.1 116.087 155.1C147.591 155.1 177.697 148.783 201.109 137.077C211.599 131.832 223.089 124.174 232.08 113.9ZM116.095 0.899902C145.654 0.899902 173.207 6.85672 193.961 17.2339C213.758 27.1326 232.095 43.7676 232.095 66.8999C232.095 90.0322 213.758 106.667 193.961 116.566C173.207 126.943 145.654 132.9 116.095 132.9C86.5352 132.9 58.9829 126.943 38.2285 116.566C18.4313 106.667 0.0947266 90.0322 0.0947266 66.8999C0.0947266 43.7676 18.4313 27.1326 38.2285 17.2339C58.9829 6.85672 86.5352 0.899902 116.095 0.899902ZM115.952 77.1724C97.3643 77.1724 81.1083 80.9812 69.9287 86.5952C66.4033 88.3656 63.6667 90.1471 61.5605 91.8618C76.1853 97.3803 95.0578 100.9 116.095 100.9C137.038 100.9 155.837 97.4123 170.435 91.936C168.316 90.1984 165.551 88.3913 161.975 86.5952C150.795 80.9812 134.54 77.1724 115.952 77.1724ZM116.095 32.8999C90.4258 32.8999 67.9776 38.1357 52.5391 45.855C36.1436 54.0527 32.0947 62.418 32.0947 66.8999C32.0947 69.9592 33.9823 74.8267 40.3945 80.2163C45.5049 74.1954 52.4039 69.3756 59.5664 65.7788C74.5954 58.2319 94.5472 53.8999 115.952 53.8999C137.357 53.9 157.309 58.2318 172.338 65.7788C179.556 69.4035 186.505 74.2714 191.627 80.3579C198.175 74.9123 200.095 69.9859 200.095 66.8999C200.095 62.418 196.046 54.0527 179.65 45.855C164.212 38.1357 141.764 32.8999 116.095 32.8999Z"
    fill="#2563EB" />
</svg>
