<svg
  width="232"
  height="179"
  viewBox="0 0 232 179"
  fill="none"
  xmlns="http://www.w3.org/2000/svg"
>
  <path
    fill-rule="evenodd"
    clip-rule="evenodd"
    d="M52.4447 44.9555C36.0492 53.1533 32 61.5181 32 66C32 69.0593 33.8867 73.9279 40.299 79.3176C45.4095 73.2962 52.3083 68.4761 59.4713 64.8792C74.5003 57.3321 94.4518 53 115.857 53C137.262 53 157.214 57.3321 172.243 64.8792C179.461 68.504 186.411 73.3709 191.533 79.4577C198.081 74.0123 200 69.0858 200 66C200 61.5181 195.951 53.1533 179.555 44.9555C164.117 37.2362 141.669 32 116 32C90.3311 32 67.8833 37.2362 52.4447 44.9555ZM170.342 91.0373C168.223 89.2992 165.458 87.4915 161.88 85.6949C150.7 80.0809 134.445 76.2727 115.857 76.2727C97.2692 76.2727 81.0139 80.0809 69.8343 85.6949C66.307 87.4662 63.5689 89.2482 61.4623 90.9636C76.0874 96.4826 94.9618 100 116 100C136.944 100 155.744 96.5139 170.342 91.0373ZM38.1339 16.3338C58.8882 5.95666 86.4404 0 116 0C145.56 0 173.112 5.95666 193.866 16.3338C213.663 26.2325 232 42.8676 232 66C232 89.1324 213.663 105.768 193.866 115.666C173.112 126.043 145.56 132 116 132C86.4404 132 58.8882 126.043 38.1339 115.666C18.3366 105.768 0 89.1324 0 66C0 42.8676 18.3366 26.2325 38.1339 16.3338ZM201.014 136.177C211.504 130.932 222.994 123.274 231.985 113C231.568 135.716 213.427 152.082 193.859 161.866C173.104 172.243 145.552 178.2 115.993 178.2C86.4331 178.2 58.8809 172.243 38.1266 161.866C18.5582 152.082 0.416944 135.716 0 113C8.99136 123.274 20.4817 130.932 30.9712 136.177C54.384 147.884 84.4886 154.2 115.993 154.2C147.497 154.2 177.601 147.884 201.014 136.177Z"
    fill="#2563eb"
  />
</svg>
