<svg width="954" height="180" viewBox="0 0 954 180" fill="none" xmlns="http://www.w3.org/2000/svg">
<path d="M232.29 113.9C231.873 136.616 213.731 152.982 194.163 162.766C173.408 173.143 145.856 179.1 116.296 179.1C86.7371 179.1 59.1853 173.143 38.4312 162.766C18.8628 152.982 0.721143 136.616 0.304199 113.9C9.29542 124.174 20.7856 131.832 31.2749 137.077C54.6876 148.783 84.7925 155.1 116.296 155.1C147.801 155.1 177.906 148.783 201.319 137.077C211.808 131.832 223.298 124.174 232.29 113.9ZM116.304 0.899902C145.864 0.899902 173.416 6.85672 194.17 17.2339C213.968 27.1326 232.304 43.7676 232.304 66.8999C232.304 90.0322 213.968 106.667 194.17 116.566C173.416 126.943 145.864 132.9 116.304 132.9C86.7446 132.9 59.1923 126.943 38.438 116.566C18.6407 106.667 0.304199 90.0322 0.304199 66.8999C0.304199 43.7676 18.6407 27.1326 38.438 17.2339C59.1923 6.85672 86.7446 0.899902 116.304 0.899902ZM116.162 77.1724C97.5738 77.1724 81.3178 80.9812 70.1382 86.5952C66.6127 88.3656 63.876 90.1471 61.77 91.8618C76.3948 97.3803 95.2672 100.9 116.304 100.9C137.248 100.9 156.047 97.4123 170.644 91.936C168.526 90.1984 165.761 88.3913 162.184 86.5952C151.005 80.9812 134.749 77.1724 116.162 77.1724ZM116.304 32.8999C90.6353 32.8999 68.1871 38.1357 52.7485 45.855C36.3531 54.0527 32.3042 62.418 32.3042 66.8999C32.3042 69.9592 34.1918 74.8267 40.604 80.2163C45.7143 74.1951 52.6132 69.3756 59.7759 65.7788C74.8048 58.2319 94.7566 53.8999 116.162 53.8999C137.567 53.9 157.518 58.2318 172.547 65.7788C179.765 69.4035 186.714 74.2713 191.835 80.3579C198.384 74.9121 200.304 69.9859 200.304 66.8999C200.304 62.418 196.255 54.0527 179.86 45.855C164.421 38.1357 141.973 32.8999 116.304 32.8999Z" fill="#2563EB"/>
<path d="M909.837 160.098C900.133 160.098 891.514 158.055 883.981 153.969C876.448 149.756 870.447 144.01 865.978 136.732C861.636 129.454 859.466 121.155 859.466 111.834C859.466 102.641 861.573 94.4689 865.786 87.3186C870.127 80.0407 876.001 74.2949 883.406 70.0814C890.812 65.7401 899.048 63.5695 908.113 63.5695C917.051 63.5695 924.904 65.6125 931.671 69.6983C938.566 73.6565 943.928 79.1469 947.759 86.1695C951.717 93.0644 953.696 100.917 953.696 109.727C953.696 111.387 953.568 113.111 953.313 114.898C953.185 116.558 952.866 118.473 952.355 120.644L874.596 120.836V102.066L940.672 101.875L930.522 109.727C930.266 104.237 929.245 99.6401 927.457 95.9373C925.797 92.2344 923.308 89.4254 919.988 87.5102C916.796 85.4672 912.837 84.4458 908.113 84.4458C903.134 84.4458 898.792 85.5949 895.089 87.8932C891.387 90.0638 888.514 93.1921 886.471 97.2779C884.556 101.236 883.598 105.96 883.598 111.451C883.598 117.069 884.619 121.985 886.662 126.198C888.833 130.284 891.897 133.476 895.856 135.774C899.814 137.945 904.41 139.03 909.645 139.03C914.37 139.03 918.647 138.264 922.478 136.732C926.308 135.072 929.628 132.646 932.437 129.454L947.184 144.202C942.715 149.437 937.225 153.395 930.713 156.076C924.329 158.757 917.37 160.098 909.837 160.098Z" fill="black"/>
<path d="M812.286 160.29C807.051 160.29 801.88 159.587 796.773 158.183C791.793 156.778 787.196 154.863 782.983 152.437C778.769 149.883 775.13 146.819 772.066 143.244L787.005 128.113C790.197 131.689 793.9 134.37 798.113 136.158C802.327 137.945 806.987 138.839 812.095 138.839C816.181 138.839 819.245 138.264 821.288 137.115C823.458 135.966 824.544 134.242 824.544 131.944C824.544 129.39 823.395 127.411 821.096 126.007C818.926 124.602 816.053 123.453 812.478 122.559C808.903 121.538 805.136 120.452 801.178 119.303C797.347 118.026 793.644 116.43 790.069 114.515C786.494 112.472 783.557 109.727 781.259 106.28C779.088 102.704 778.003 98.1079 778.003 92.4898C778.003 86.6164 779.408 81.509 782.217 77.1678C785.153 72.8266 789.303 69.443 794.666 67.017C800.029 64.591 806.349 63.378 813.627 63.378C821.288 63.378 828.183 64.7187 834.312 67.4C840.568 70.0814 845.739 74.1034 849.825 79.4661L834.695 94.5966C831.886 91.1491 828.693 88.6593 825.118 87.1271C821.671 85.5949 817.904 84.8288 813.818 84.8288C810.116 84.8288 807.243 85.4034 805.2 86.5525C803.285 87.7017 802.327 89.2977 802.327 91.3407C802.327 93.639 803.412 95.4265 805.583 96.7034C807.881 97.9802 810.818 99.1293 814.393 100.151C817.968 101.045 821.671 102.13 825.501 103.407C829.46 104.556 833.162 106.216 836.61 108.386C840.185 110.557 843.058 113.43 845.229 117.005C847.527 120.58 848.676 125.177 848.676 130.795C848.676 139.86 845.42 147.074 838.908 152.437C832.396 157.672 823.522 160.29 812.286 160.29Z" fill="black"/>
<path d="M706.585 160.098C698.158 160.098 690.561 157.991 683.794 153.778C677.027 149.564 671.728 143.819 667.897 136.541C664.067 129.263 662.151 121.091 662.151 112.025C662.151 102.832 664.067 94.5966 667.897 87.3186C671.728 80.0407 677.027 74.2949 683.794 70.0814C690.561 65.8678 698.158 63.761 706.585 63.761C713.225 63.761 719.162 65.1017 724.397 67.7831C729.632 70.4644 733.782 74.2311 736.846 79.0831C740.038 83.8073 741.762 89.17 742.017 95.1712V128.497C741.762 134.625 740.038 140.052 736.846 144.776C733.782 149.5 729.632 153.267 724.397 156.076C719.162 158.758 713.225 160.098 706.585 160.098ZM711.182 136.924C718.205 136.924 723.886 134.625 728.228 130.029C732.569 125.304 734.74 119.239 734.74 111.834C734.74 106.982 733.718 102.704 731.675 99.0017C729.76 95.1712 727.015 92.2344 723.44 90.1915C719.992 88.0209 715.906 86.9356 711.182 86.9356C706.585 86.9356 702.499 88.0209 698.924 90.1915C695.477 92.2344 692.732 95.1712 690.689 99.0017C688.773 102.704 687.816 106.982 687.816 111.834C687.816 116.814 688.773 121.219 690.689 125.049C692.732 128.752 695.477 131.689 698.924 133.859C702.499 135.902 706.585 136.924 711.182 136.924ZM733.399 158.183V133.285L737.421 110.685L733.399 88.4678V65.6763H758.297V158.183H733.399Z" fill="black"/>
<path d="M606.63 160.098C599.991 160.098 593.989 158.694 588.627 155.885C583.264 153.076 578.987 149.245 575.795 144.393C572.603 139.541 570.879 134.115 570.623 128.113V95.1712C570.879 89.17 572.603 83.8073 575.795 79.0831C579.114 74.2311 583.456 70.4644 588.818 67.7831C594.181 65.1017 600.118 63.761 606.63 63.761C615.185 63.761 622.846 65.8678 629.613 70.0814C636.38 74.2949 641.679 80.0407 645.51 87.3186C649.468 94.5966 651.447 102.832 651.447 112.025C651.447 121.091 649.468 129.263 645.51 136.541C641.679 143.819 636.38 149.564 629.613 153.778C622.846 157.991 615.185 160.098 606.63 160.098ZM555.301 158.183V19.7103H580.391V88.4678L576.178 110.685L580.2 133.285V158.183H555.301ZM602.417 136.924C607.013 136.924 611.035 135.902 614.483 133.859C618.058 131.689 620.803 128.752 622.718 125.049C624.761 121.219 625.783 116.814 625.783 111.834C625.783 106.982 624.761 102.704 622.718 99.0017C620.803 95.1712 618.058 92.2344 614.483 90.1915C610.908 88.0209 606.822 86.9356 602.225 86.9356C597.628 86.9356 593.543 88.0209 589.967 90.1915C586.52 92.2344 583.775 95.1712 581.732 99.0017C579.817 102.704 578.859 106.982 578.859 111.834C578.859 116.814 579.817 121.219 581.732 125.049C583.775 128.752 586.584 131.689 590.159 133.859C593.734 135.902 597.82 136.924 602.417 136.924Z" fill="black"/>
<path d="M481.394 160.098C472.967 160.098 465.369 157.991 458.602 153.778C451.835 149.564 446.536 143.819 442.706 136.541C438.875 129.263 436.96 121.091 436.96 112.025C436.96 102.832 438.875 94.5966 442.706 87.3186C446.536 80.0407 451.835 74.2949 458.602 70.0814C465.369 65.8678 472.967 63.761 481.394 63.761C488.033 63.761 493.97 65.1017 499.206 67.7831C504.441 70.4644 508.59 74.2311 511.655 79.0831C514.847 83.8073 516.57 89.17 516.826 95.1712V128.497C516.57 134.625 514.847 140.052 511.655 144.776C508.59 149.5 504.441 153.267 499.206 156.076C493.97 158.758 488.033 160.098 481.394 160.098ZM485.99 136.924C493.013 136.924 498.695 134.625 503.036 130.029C507.377 125.304 509.548 119.239 509.548 111.834C509.548 106.982 508.526 102.704 506.483 99.0017C504.568 95.1712 501.823 92.2344 498.248 90.1915C494.8 88.0209 490.715 86.9356 485.99 86.9356C481.394 86.9356 477.308 88.0209 473.733 90.1915C470.285 92.2344 467.54 95.1712 465.497 99.0017C463.582 102.704 462.624 106.982 462.624 111.834C462.624 116.814 463.582 121.219 465.497 125.049C467.54 128.752 470.285 131.689 473.733 133.859C477.308 135.902 481.394 136.924 485.99 136.924ZM508.207 158.183V133.285L512.229 110.685L508.207 88.4678V65.6763H533.105V158.183H508.207Z" fill="black"/>
<path d="M320.116 158.183V135.008H354.399C363.081 135.008 370.679 133.221 377.191 129.646C383.702 125.943 388.746 120.772 392.321 114.132C396.024 107.493 397.875 99.6401 397.875 90.5746C397.875 81.7644 396.024 74.1034 392.321 67.5915C388.618 60.952 383.511 55.8447 376.999 52.2695C370.487 48.5667 362.954 46.7153 354.399 46.7153H319.541V23.5408H354.782C364.741 23.5408 373.935 25.2007 382.362 28.5204C390.916 31.8402 398.322 36.5645 404.579 42.6933C410.963 48.6944 415.879 55.7808 419.326 63.9526C422.901 72.1243 424.689 81.0621 424.689 90.7661C424.689 100.47 422.901 109.472 419.326 117.771C415.879 125.943 411.027 133.093 404.77 139.222C398.514 145.223 391.108 149.883 382.553 153.203C374.126 156.523 364.997 158.183 355.165 158.183H320.116ZM302.304 158.183V23.5408H328.352V158.183H302.304Z" fill="black"/>
</svg>
