<svg width="1381" height="206" viewBox="0 0 1381 206" fill="none" xmlns="http://www.w3.org/2000/svg">
  <path
    d="M231.985 126.618C231.568 149.335 213.427 165.7 193.858 175.485C173.104 185.862 145.552 191.819 115.992 191.819C86.4329 191.819 58.8811 185.862 38.127 175.485C18.5586 165.7 0.416944 149.335 0 126.618C8.99122 136.892 20.4814 144.55 30.9707 149.795C54.3834 161.502 84.4883 167.819 115.992 167.819C147.496 167.819 177.602 161.502 201.015 149.795C211.504 144.55 222.994 136.892 231.985 126.618ZM116 13.6184C145.56 13.6184 173.112 19.5752 193.866 29.9524C213.663 39.8511 232 56.4861 232 79.6184C232 102.751 213.663 119.386 193.866 129.284C173.112 139.662 145.56 145.618 116 145.618C86.4404 145.618 58.8881 139.662 38.1338 129.284C18.3365 119.386 0 102.751 0 79.6184C0 56.4861 18.3365 39.8511 38.1338 29.9524C58.8881 19.5752 86.4404 13.6184 116 13.6184ZM115.857 89.8909C97.2696 89.8909 81.0136 93.6997 69.834 99.3137C66.3085 101.084 63.5718 102.866 61.4658 104.58C76.0906 110.099 94.963 113.618 116 113.618C136.944 113.618 155.742 110.131 170.34 104.655C168.222 102.917 165.457 101.11 161.88 99.3137C150.7 93.6997 134.445 89.8909 115.857 89.8909ZM116 45.6184C90.3311 45.6184 67.8829 50.8542 52.4443 58.5735C36.0489 66.7712 32 75.1366 32 79.6184C32 82.6777 33.8876 87.5452 40.2998 92.9348C45.4101 86.9136 52.309 82.0941 59.4717 78.4973C74.5006 70.9504 94.4524 66.6184 115.857 66.6184C137.262 66.6185 157.214 70.9503 172.243 78.4973C179.461 82.122 186.41 86.9898 191.531 93.0764C198.079 87.6306 200 82.7044 200 79.6184C200 75.1366 195.951 66.7712 179.556 58.5735C164.117 50.8542 141.669 45.6184 116 45.6184Z"
    fill="#2563EB" />
  <path
    d="M1306.69 167.515L1268 74.2423H1295.2L1320.86 145.49H1311.67L1338.29 74.2423H1365.68L1324.5 167.515H1306.69ZM1281.02 205.437L1309.18 145.873L1324.5 167.515L1307.65 205.437H1281.02Z"
    fill="#111111" />
  <path
    d="M1202 166.507V74H1227.09V166.507H1202ZM1227.09 116.519L1217.32 108.858C1218.47 97.4938 1221.6 88.7696 1227.09 82.2577C1231.72 76.6543 1238.33 74.6274 1246.5 74.1312C1248.01 74.0395 1248.39 74.0001 1250 74.0001C1250 74.0001 1251.82 73.9931 1255.5 74L1264.19 96.0254H1258.19C1254.69 96.0254 1247.84 96.0254 1245.28 96.0254C1239.92 96.0254 1235.52 97.7491 1232.07 101.197C1228.75 104.516 1227.09 109.624 1227.09 116.519Z"
    fill="#111111" />
  <path
    d="M1144.56 168.664C1134.86 168.664 1126.24 166.621 1118.71 162.535C1111.17 158.322 1105.17 152.576 1100.7 145.298C1096.36 138.02 1094.19 129.721 1094.19 120.4C1094.19 111.207 1096.3 103.035 1100.51 95.8846C1104.85 88.6067 1110.73 82.8609 1118.13 78.6474C1125.54 74.3061 1133.77 72.1355 1142.84 72.1355C1151.78 72.1355 1159.63 74.1784 1166.4 78.2643C1173.29 82.2225 1178.65 87.7129 1182.48 94.7355C1186.44 101.63 1188.42 109.483 1188.42 118.293C1188.42 119.953 1188.29 121.677 1188.04 123.464C1187.91 125.124 1187.59 127.039 1187.08 129.21L1109.32 129.402V110.632L1175.4 110.441L1165.25 118.293C1164.99 112.803 1163.97 108.206 1162.18 104.503C1160.52 100.8 1158.03 97.9914 1154.71 96.0761C1151.52 94.0332 1147.56 93.0117 1142.84 93.0117C1137.86 93.0117 1133.52 94.1609 1129.81 96.4592C1126.11 98.6298 1123.24 101.758 1121.2 105.844C1119.28 109.802 1118.32 114.526 1118.32 120.017C1118.32 125.635 1119.34 130.551 1121.39 134.764C1123.56 138.85 1126.62 142.042 1130.58 144.34C1134.54 146.511 1139.13 147.596 1144.37 147.596C1149.09 147.596 1153.37 146.83 1157.2 145.298C1161.03 143.638 1164.35 141.212 1167.16 138.02L1181.91 152.768C1177.44 158.003 1171.95 161.961 1165.44 164.642C1159.05 167.323 1152.09 168.664 1144.56 168.664Z"
    fill="#111111" />
  <path
    d="M1038.59 168.664C1030.42 168.664 1023.14 166.94 1016.75 163.493C1010.5 160.046 1005.58 155.257 1002.01 149.129C998.43 143 996.643 135.913 996.643 127.869V74.2423H1021.92V127.295C1021.92 131.125 1022.56 134.445 1023.84 137.254C1025.12 139.935 1027.03 141.978 1029.59 143.383C1032.14 144.787 1035.14 145.49 1038.59 145.49C1043.82 145.49 1047.91 143.894 1050.84 140.702C1053.78 137.509 1055.25 133.041 1055.25 127.295V74.2423H1080.34V127.869C1080.34 136.041 1078.55 143.191 1074.98 149.32C1071.53 155.449 1066.61 160.237 1060.23 163.685C1053.97 167.004 1046.76 168.664 1038.59 168.664Z"
    fill="#111111" />
  <path
    d="M909.614 170.078C899.683 170.078 890.397 168.275 881.756 164.668C873.243 161.062 865.763 156.103 859.314 149.791C852.865 143.351 847.835 135.88 844.224 127.379C840.741 118.748 839 109.539 839 99.7494C839 89.96 840.741 80.879 844.224 72.5065C847.835 64.0052 852.8 56.5988 859.12 50.2872C865.569 43.8468 873.05 38.8877 881.562 35.4099C890.074 31.8033 899.296 30 909.227 30C919.159 30 928.38 31.8033 936.893 35.4099C945.405 38.8877 952.886 43.8468 959.335 50.2872C965.783 56.5988 970.749 64.0052 974.231 72.5065C977.843 81.0078 979.648 90.1532 979.648 99.9426C979.648 109.732 977.843 118.877 974.231 127.379C970.749 135.88 965.783 143.351 959.335 149.791C953.015 156.103 945.599 161.062 937.086 164.668C928.574 168.275 919.417 170.078 909.614 170.078ZM970.942 178L908.647 115.786L924.511 99.7494L987 162.157L970.942 178ZM909.227 145.54C917.869 145.54 925.414 143.608 931.863 139.744C938.441 135.88 943.535 130.534 947.146 123.708C950.887 116.881 952.757 108.895 952.757 99.7494C952.757 93.0514 951.661 86.933 949.468 81.3943C947.404 75.8555 944.438 71.0896 940.569 67.0966C936.699 62.9748 932.121 59.819 926.833 57.6292C921.545 55.4395 915.676 54.3447 909.227 54.3447C900.715 54.3447 893.17 56.2768 886.592 60.141C880.143 63.8764 875.049 69.1575 871.308 75.9843C867.697 82.8111 865.892 90.7328 865.892 99.7494C865.892 106.576 866.923 112.823 868.987 118.491C871.18 124.158 874.146 128.989 877.886 132.982C881.756 136.975 886.334 140.066 891.622 142.256C897.039 144.446 902.908 145.54 909.227 145.54Z"
    fill="#111111" />
  <path d="M781.268 167V35.7457H806.358V167H781.268ZM766.626 96.2677V74.2423H828V96.2677H766.626Z"
    fill="#111111" />
  <path
    d="M696.813 166.749V74.2423H721.902V166.749H696.813ZM721.902 116.761L712.135 109.1C713.284 97.736 716.412 89.0119 721.902 82.5C727.393 75.8605 735.658 74.2423 746 74.2423C750.469 74.2423 749.823 74.2423 753.5 74.2492H754V96.2677H753C749.5 96.2677 742.651 96.2677 740.097 96.2677C734.735 96.2677 730.33 97.9914 726.882 101.439C723.562 104.759 721.902 109.866 721.902 116.761Z"
    fill="#111111" />
  <path
    d="M622.905 168.664C614.478 168.664 606.881 166.557 600.113 162.344C593.346 158.13 588.047 152.385 584.217 145.107C580.386 137.829 578.471 129.657 578.471 120.591C578.471 111.398 580.386 103.163 584.217 95.8846C588.047 88.6067 593.346 82.8609 600.113 78.6474C606.881 74.4338 614.478 72.327 622.905 72.327C629.544 72.327 635.482 73.6677 640.717 76.3491C645.952 79.0304 650.101 82.7971 653.166 87.649C656.358 92.3733 658.082 97.736 658.337 103.737V137.063C658.082 143.191 656.358 148.618 653.166 153.342C650.101 158.066 645.952 161.833 640.717 164.642C635.482 167.323 629.544 168.664 622.905 168.664ZM627.501 145.49C634.524 145.49 640.206 143.191 644.547 138.595C648.888 133.87 651.059 127.805 651.059 120.4C651.059 115.548 650.038 111.27 647.995 107.568C646.079 103.737 643.334 100.8 639.759 98.7575C636.312 96.5869 632.226 95.5016 627.501 95.5016C622.905 95.5016 618.819 96.5869 615.244 98.7575C611.796 100.8 609.051 103.737 607.008 107.568C605.093 111.27 604.135 115.548 604.135 120.4C604.135 125.379 605.093 129.785 607.008 133.615C609.051 137.318 611.796 140.255 615.244 142.425C618.819 144.468 622.905 145.49 627.501 145.49ZM649.718 166.749V141.851L653.74 119.251L649.718 97.0338V74.2423H674.617V166.749H649.718Z"
    fill="#111111" />
  <path
    d="M418.129 166.749V74.2423H443.218V166.749H418.129ZM478.459 166.749V112.164C478.459 106.802 476.735 102.652 473.288 99.7151C469.968 96.6507 465.818 95.1185 460.839 95.1185C457.519 95.1185 454.518 95.8208 451.837 97.2253C449.156 98.5021 447.049 100.417 445.517 102.971C443.985 105.525 443.218 108.589 443.218 112.164L433.451 107.376C433.451 100.226 434.983 94.0332 438.047 88.7982C441.239 83.5632 445.517 79.5411 450.879 76.7321C456.242 73.7954 462.307 72.327 469.074 72.327C475.459 72.327 481.268 73.7954 486.503 76.7321C491.738 79.5411 495.888 83.5632 498.952 88.7982C502.017 93.9055 503.549 100.098 503.549 107.376V166.749H478.459ZM538.789 166.749V112.164C538.789 106.802 537.066 102.652 533.618 99.7151C530.299 96.6507 526.149 95.1185 521.169 95.1185C517.977 95.1185 514.977 95.8208 512.167 97.2253C509.486 98.5021 507.379 100.417 505.847 102.971C504.315 105.525 503.549 108.589 503.549 112.164L489.184 108.717C489.695 101.311 491.674 94.927 495.122 89.5643C498.569 84.0739 503.102 79.8604 508.72 76.9236C514.338 73.8592 520.595 72.327 527.489 72.327C534.384 72.327 540.577 73.7954 546.067 76.7321C551.558 79.5411 555.899 83.627 559.091 88.9897C562.283 94.3524 563.879 100.737 563.879 108.142V166.749H538.789Z"
    fill="#111111" />
  <path
    d="M350.839 168.664C339.986 168.664 330.665 166.813 322.876 163.11C315.215 159.407 308.256 153.853 302 146.447L319.237 129.21C323.195 134.445 327.792 138.531 333.027 141.468C338.262 144.277 344.646 145.681 352.18 145.681C358.947 145.681 364.31 144.34 368.268 141.659C372.354 138.978 374.396 135.275 374.396 130.551C374.396 126.465 373.247 123.145 370.949 120.591C368.651 118.038 365.586 115.867 361.756 114.08C358.053 112.292 353.903 110.696 349.307 109.291C344.838 107.759 340.305 106.035 335.708 104.12C331.24 102.205 327.09 99.8428 323.259 97.0338C319.556 94.0971 316.556 90.3943 314.258 85.9253C311.959 81.3287 310.81 75.583 310.81 68.6881C310.81 60.5163 312.789 53.5576 316.747 47.8118C320.706 42.0661 326.132 37.661 333.027 34.5966C339.922 31.5322 347.711 30 356.393 30C365.586 30 373.886 31.7237 381.291 35.1712C388.697 38.6186 394.762 43.0876 399.486 48.5779L382.249 65.8152C378.291 61.474 374.205 58.2819 369.991 56.2389C365.906 54.196 361.245 53.1745 356.01 53.1745C350.009 53.1745 345.285 54.3237 341.837 56.622C338.39 58.9203 336.666 62.2401 336.666 66.5813C336.666 70.2841 337.815 73.2847 340.113 75.583C342.412 77.8813 345.412 79.8604 349.115 81.5203C352.946 83.1801 357.095 84.7762 361.564 86.3084C366.161 87.8406 370.694 89.5643 375.163 91.4796C379.759 93.3948 383.909 95.8846 387.612 98.949C391.442 102.013 394.507 105.972 396.805 110.824C399.103 115.548 400.252 121.421 400.252 128.444C400.252 140.957 395.847 150.789 387.037 157.939C378.227 165.089 366.161 168.664 350.839 168.664Z"
    fill="#111111" />
</svg>
  
